<svg xmlns="http://www.w3.org/2000/svg" version="1.1" xmlns:xlink="http://www.w3.org/1999/xlink" xmlns:svgjs="http://svgjs.dev/svgjs" width="2000" height="1247" viewBox="0 0 2000 1247"><g transform="matrix(1,0,0,1,-1.2121212121212466,188.6487163947163)"><svg viewBox="0 0 396 247" data-background-color="#ffffff" preserveAspectRatio="xMidYMid meet" height="1247" width="2000" xmlns="http://www.w3.org/2000/svg" xmlns:xlink="http://www.w3.org/1999/xlink"><g id="tight-bounds" transform="matrix(1,0,0,1,0.2400000000000091,-0.09999999999999432)"><svg viewBox="0 0 395.52 247.2" height="247.2" width="395.52"><g><svg></svg></g><g><svg viewBox="0 0 395.52 247.2" height="247.2" width="395.52"><g transform="matrix(1,0,0,1,75.54432,90.48259918367347)"><svg viewBox="0 0 244.43135999999998 66.23480163265306" height="66.23480163265306" width="244.43135999999998"><g><svg viewBox="0 0 244.43135999999998 66.23480163265306" height="66.23480163265306" width="244.43135999999998"><g><svg viewBox="0 0 244.43135999999998 66.23480163265306" height="66.23480163265306" width="244.43135999999998"><g><svg viewBox="0 0 244.43135999999998 66.23480163265306" height="66.23480163265306" width="244.43135999999998"><g><svg viewBox="0 0 244.43135999999998 66.23480163265306" height="66.23480163265306" width="244.43135999999998" id="textblock"><g><svg viewBox="0 0 244.43135999999998 66.23480163265306" height="66.23480163265306" width="244.43135999999998"><g transform="matrix(1,0,0,1,0,0)"><svg width="244.43135999999998" viewBox="1.399999976158142 -35.349998474121094 132.29000854492188 35.849998474121094" height="66.23480163265306" data-palette-color="#ff4136"><path d="M11.2 0.5L11.2 0.5Q8.45 0.5 6.23-0.88 4-2.25 2.7-4.55 1.4-6.85 1.4-9.7L1.4-9.7 1.45-25.3Q1.45-28.05 2.73-30.33 4-32.6 6.23-33.98 8.45-35.35 11.2-35.35L11.2-35.35Q13.95-35.35 16.15-34 18.35-32.65 19.65-30.38 20.95-28.1 20.95-25.3L20.95-25.3 20.95-23Q20.95-22.8 20.75-22.8L20.75-22.8 15.15-22.8Q14.95-22.8 14.95-23L14.95-23 14.95-25.3Q14.95-26.95 13.88-28.15 12.8-29.35 11.2-29.35L11.2-29.35Q9.4-29.35 8.45-28.13 7.5-26.9 7.5-25.3L7.5-25.3 7.5-9.7Q7.5-7.85 8.58-6.7 9.65-5.55 11.2-5.55L11.2-5.55Q12.8-5.55 13.88-6.83 14.95-8.1 14.95-9.7L14.95-9.7 14.95-12Q14.95-12.2 15.15-12.2L15.15-12.2 20.8-12.2Q21-12.2 21-12L21-12 21-9.7Q21-6.85 19.68-4.55 18.35-2.25 16.15-0.88 13.95 0.5 11.2 0.5ZM30.5 0L24.85 0Q24.65 0 24.65-0.25L24.65-0.25 24.7-34.6Q24.7-34.8 24.95-34.8L24.95-34.8 30.5-34.8Q30.75-34.8 30.75-34.6L30.75-34.6 30.7-21 38.2-21 38.2-34.6Q38.2-34.8 38.4-34.8L38.4-34.8 43.95-34.8Q44.2-34.8 44.2-34.6L44.2-34.6 44.3-0.25Q44.3 0 44.05 0L44.05 0 38.45 0Q38.2 0 38.2-0.25L38.2-0.25 38.2-14.95 30.7-14.95 30.7-0.25Q30.7 0 30.5 0L30.5 0ZM57.65 0.5L57.65 0.5Q54.95 0.5 52.72-0.88 50.5-2.25 49.15-4.53 47.8-6.8 47.8-9.55L47.8-9.55 47.85-25.4Q47.85-28.15 49.17-30.4 50.5-32.65 52.75-34 55-35.35 57.65-35.35L57.65-35.35Q60.35-35.35 62.55-34 64.75-32.65 66.07-30.4 67.4-28.15 67.4-25.4L67.4-25.4 67.45-9.55Q67.45-6.8 66.12-4.53 64.8-2.25 62.57-0.88 60.35 0.5 57.65 0.5ZM57.65-5.55L57.65-5.55Q59.15-5.55 60.27-6.78 61.4-8 61.4-9.55L61.4-9.55 61.35-25.4Q61.35-27.05 60.3-28.2 59.25-29.35 57.65-29.35L57.65-29.35Q56.1-29.35 55-28.23 53.9-27.1 53.9-25.4L53.9-25.4 53.9-9.55Q53.9-7.9 55-6.73 56.1-5.55 57.65-5.55ZM77.09 0L71.49 0Q71.24 0 71.24-0.25L71.24-0.25 71.34-34.6Q71.34-34.8 71.54-34.8L71.54-34.8 87.54-34.8Q87.79-34.8 87.79-34.6L87.79-34.6 87.79-28.95Q87.79-28.75 87.59-28.75L87.59-28.75 77.34-28.75 77.34-21 87.59-21Q87.79-21 87.79-20.75L87.79-20.75 87.84-15.1Q87.84-14.9 87.59-14.9L87.59-14.9 77.34-14.9 77.34-0.25Q77.34 0 77.09 0L77.09 0ZM99.74 0.5L99.74 0.5Q97.04 0.5 94.82-0.88 92.59-2.25 91.24-4.53 89.89-6.8 89.89-9.55L89.89-9.55 89.94-25.4Q89.94-28.15 91.27-30.4 92.59-32.65 94.84-34 97.09-35.35 99.74-35.35L99.74-35.35Q102.44-35.35 104.64-34 106.84-32.65 108.17-30.4 109.49-28.15 109.49-25.4L109.49-25.4 109.54-9.55Q109.54-6.8 108.22-4.53 106.89-2.25 104.67-0.88 102.44 0.5 99.74 0.5ZM99.74-5.55L99.74-5.55Q101.24-5.55 102.37-6.78 103.49-8 103.49-9.55L103.49-9.55 103.44-25.4Q103.44-27.05 102.39-28.2 101.34-29.35 99.74-29.35L99.74-29.35Q98.19-29.35 97.09-28.23 95.99-27.1 95.99-25.4L95.99-25.4 95.99-9.55Q95.99-7.9 97.09-6.73 98.19-5.55 99.74-5.55ZM119.19 0L113.54 0Q113.34 0 113.34-0.25L113.34-0.25 113.44-34.6Q113.44-34.8 113.64-34.8L113.64-34.8 123.74-34.8Q126.44-34.8 128.71-33.48 130.99-32.15 132.34-29.93 133.69-27.7 133.69-24.9L133.69-24.9Q133.69-23.05 133.14-21.58 132.59-20.1 131.84-19.07 131.09-18.05 130.49-17.55L130.49-17.55Q133.19-14.55 133.19-10.5L133.19-10.5 133.24-0.25Q133.24 0 132.99 0L132.99 0 127.34 0Q127.14 0 127.14-0.15L127.14-0.15 127.14-10.5Q127.14-12.3 125.86-13.63 124.59-14.95 122.74-14.95L122.74-14.95 119.44-14.95 119.39-0.25Q119.39 0 119.19 0L119.19 0ZM119.44-28.8L119.44-20.95 123.74-20.95Q125.29-20.95 126.49-22.1 127.69-23.25 127.69-24.9L127.69-24.9Q127.69-26.5 126.51-27.65 125.34-28.8 123.74-28.8L123.74-28.8 119.44-28.8Z" opacity="1" transform="matrix(1,0,0,1,0,0)" fill="#ff4136" class="undefined-text-0" data-fill-palette-color="primary" id="text-0"></path></svg></g></svg></g></svg></g></svg></g><g></g></svg></g></svg></g></svg></g><g><path d="M85.69 74.846A122.216 122.216 0 0 1 309.83 74.846L303.857 74.846A116.243 116.243 0 0 0 91.663 74.846L85.69 74.846M85.69 172.354A122.216 122.216 0 0 0 309.83 172.354L303.857 172.354A116.243 116.243 0 0 1 91.663 172.354L85.69 172.354" fill="#ff4136" stroke="transparent" data-fill-palette-color="tertiary"></path></g></svg></g><defs></defs></svg><rect width="395.52" height="247.2" fill="none" stroke="none" visibility="hidden"></rect></g></svg></g></svg>