<svg xmlns="http://www.w3.org/2000/svg" version="1.1" xmlns:xlink="http://www.w3.org/1999/xlink" xmlns:svgjs="http://svgjs.dev/svgjs" width="1000" height="1125" viewBox="0 0 1000 1125"><g transform="matrix(1,0,0,1,1.7053025658242404e-13,0)"><svg viewBox="0 0 320 360" data-background-color="#ffffff" preserveAspectRatio="xMidYMid meet" height="1125" width="1000" xmlns="http://www.w3.org/2000/svg" xmlns:xlink="http://www.w3.org/1999/xlink"><g id="tight-bounds" transform="matrix(1,0,0,1,0,0)"><svg viewBox="0 0 320 360" height="360" width="320"><g><svg></svg></g><g><svg viewBox="0 0 320 360" height="360" width="320"><g><path xmlns="http://www.w3.org/2000/svg" d="M20.961 227.22l3.726 4.658-1.863-6.056c-0.466-2.795-3.726 0.466-1.863 1.398M25.153 224.425c1.397 2.329 2.795 4.658 2.795 6.987 0 3.261 2.795 4.658 5.123 5.589-3.261-3.726-5.124-13.974-7.918-12.576M204.017 26.929c7.918 0 15.371-0.932 23.756 0.931 20.495 5.124 37.729 15.371 49.374 29.811l32.606 52.169c1.397 13.042 4.192 27.482 3.726 43.319 3.261 0 2.795-4.658 6.521-5.59-3.726 9.316-5.59 20.961-6.521 34.469-2.329-7.453 0-18.632 0.466-24.687-3.261 5.124-5.124 1.397-5.124-0.932 0.466-3.726-1.397-3.261-2.795-4.658-5.124-4.658-8.384-9.782-12.11-17.7 2.329-6.055 2.795-14.905-4.658-19.563-2.329-1.397-5.124-3.726-6.521-7.453-1.863-5.124-5.124-11.179-4.193-19.097 0.466-2.329-6.987 5.124-11.179 1.863-18.166-12.576-36.332-27.016-58.224-39.127-11.645 0-20.029-4.192-24.221-9.316-3.726-4.658-0.932-10.713 4.658-11.179 3.261 0 6.987-0.932 9.782 0.932 0.466-1.863 2.329-4.192 4.657-4.192M157.904 16.215l0.932 0.466c4.658 0.932 6.987 7.453 12.11 5.124 0 3.261 0.466 6.521-0.466 8.85-1.397 3.726-5.59 3.726-8.85 3.726-31.208-1.863-49.374 11.179-68.471 22.358-5.124 3.261-10.713 5.59-14.906 9.782-20.029 18.632-41.921 35.866-47.045 70.335l-4.192 38.195c-0.466 4.192-5.124 8.384-4.192 13.508l3.26 22.824c-3.261-3.261-5.124 0.932-4.192 2.795 0.466 1.397 2.329 6.055 5.124 1.863 3.726 6.987 7.453 20.495 12.576 26.55 15.837 18.632 36.332 35.4 53.101 52.169 4.192-0.932 7.453-0.932 8.384-3.727 1.397 2.795-1.397 5.59-3.726 6.056 7.453 4.658 15.837 8.85 27.016 9.781 14.44 0.932 27.948 3.261 40.524 6.522 6.521-1.863 13.042-2.795 20.029-3.261 2.329 0 3.726-3.726 6.521-4.658l0.466-4.658c2.795 4.192 2.329-1.397 0.466-4.192 3.261 2.795 4.192 5.124 5.589 6.987 0-1.397 3.726-6.521 3.727-0.466l0.931-6.055c1.397-0.932 1.863 5.124 3.261 0.931 1.397-4.192 4.192-0.932 6.987-2.329-0.932 1.863-0.466 5.59 2.794 3.261l3.727-3.261c2.329 5.59 6.055 3.261 7.918 2.329 20.495-13.042 40.99-28.413 60.553-43.784l-0.466 6.055 2.329-7.453c2.329 2.329 4.192 0.466 5.124-0.931 2.795-4.658 6.521-9.316 12.577-13.508-7.453 20.029-16.303 35.866-27.482 48.908l-4.658 5.59c0 3.261-0.932 7.453-4.658 7.918-1.863 0.466-5.59-0.932-8.384 1.863-1.397 1.863 3.261 5.59-0.466 2.795-3.261-2.329-6.521 0-10.248 0.932-2.795 0.932 1.863 3.726 2.795 5.589 0.932 1.863 1.863 3.726 1.398 6.056l-5.124-5.59c-6.055 3.261-9.782 9.316-14.906 13.974-2.329 1.863-1.397 5.124-1.397 7.918-3.261 0-6.987-0.932-8.85 0.932-1.397 1.863-0.932 4.658-0.932 7.453-4.658-0.466-5.124-7.453-9.315-6.056-4.192 0.932-8.85 1.397-12.577 3.727 2.795 5.59-4.658 2.329-3.726 3.26-6.987-4.192-13.042-7.453-20.495-4.658-15.837-5.124-35.4-2.795-49.84-0.931 0-2.329 0.466-4.658-0.466-5.124-0.932 2.329-3.726 1.397-3.26 1.397-8.85-6.055-17.7-9.782-27.016-14.905-8.384 0.932-16.303-3.261-18.632-5.59-6.521-6.055-13.974-2.795-20.029-4.192-13.042-3.261-17.7-16.769-19.098-26.084-0.932-4.658-4.658-6.521-6.055-6.056-6.055-19.563-15.371-37.263-22.824-55.429-1.863-4.658-1.397-9.316-1.397-14.44 2.329 0.932 4.658 0.466 4.192-2.794-2.329-15.371-7.918-27.016-13.974-38.195 3.261-15.837 3.726-34.469 11.179-48.443 6.521-12.576 18.632-19.098 27.016-29.811 2.795-3.726 2.795-8.85 5.59-12.11 9.316-9.316 18.632-19.098 28.879-27.482 4.658-3.726 10.247 0 17.234-1.397 2.329-8.384 11.645-15.837 20.495-13.508 3.726 0.932 11.179-8.85 13.508-9.782 3.726-1.397 1.863 3.726 1.863 6.987 8.85-6.987 20.961-10.713 32.14-14.906" fill="#915eff" fill-rule="nonzero" stroke="none" stroke-width="1" stroke-linecap="butt" stroke-linejoin="miter" stroke-miterlimit="10" stroke-dasharray="" stroke-dashoffset="0" font-family="none" font-weight="none" font-size="none" text-anchor="none" style="mix-blend-mode: normal" data-fill-palette915eff="tertiary"></path></g><g transform="matrix(1,0,0,1,64,155.62285714285713)"><svg viewBox="0 0 192 48.75428571428572" height="48.75428571428572" width="192"><g><svg viewBox="0 0 192 48.75428571428572" height="48.75428571428572" width="192"><g><svg viewBox="0 0 192 48.75428571428572" height="48.75428571428572" width="192"><g><svg viewBox="0 0 192 48.75428571428572" height="48.75428571428572" width="192"><g><svg viewBox="0 0 192 48.75428571428572" height="48.75428571428572" width="192" id="textblock"><g><svg viewBox="0 0 192 48.75428571428572" height="48.75428571428572" width="192"><g transform="matrix(1,0,0,1,0,0)"><svg width="192" viewBox="3 -35.04999923706055 139.99000549316406 35.54999923706055" height="48.75428571428572" data-palette-color="#ee3e38"><path d="M3-17.5L3-17.5Q3.05-25.85 7.63-30.43 12.2-35 20.25-35L20.25-35 23.5-35 23.5-30.6 19.65-30.6Q14.1-30.6 11.13-26.93 8.15-23.25 8.05-17.5L8.05-17.5Q8.15-11.75 11.13-8.08 14.1-4.4 19.65-4.4L19.65-4.4 23.5-4.4 23.5 0 20.25 0Q12.2 0 7.63-4.58 3.05-9.15 3-17.5ZM29.25-35L33.65-35 33.65-24 37.9-24Q43.45-24 45.85-22.35L45.85-22.35Q48-20.9 48.57-18.88 49.15-16.85 49.15-13.55L49.15-13.55 49.15 0 44.75 0 44.75-13.5Q44.75-14.4 44.7-15.03 44.65-15.65 44.35-16.63 44.05-17.6 43.5-18.23 42.95-18.85 41.9-19.33 40.85-19.8 39.35-19.8L39.35-19.8 33.65-19.8 33.65 0 29.25 0 29.25-35ZM57.9-20.85L57.9-20.85Q61.4-24.5 66.65-24.5L66.65-24.5Q69.2-24.5 71.42-23.53 73.65-22.55 75.32-20.85 77-19.15 77.95-16.88 78.9-14.6 78.9-12L78.9-12Q78.9-9.4 77.97-7.13 77.05-4.85 75.4-3.15 73.75-1.45 71.5-0.48 69.25 0.5 66.65 0.5L66.65 0.5Q64 0.5 61.77-0.48 59.55-1.45 57.9-3.15 56.25-4.85 55.32-7.13 54.4-9.4 54.4-12L54.4-12Q54.4-17.3 57.9-20.85ZM66.65-20.3L66.65-20.3Q63.15-20.3 61.02-18 58.9-15.7 58.9-12 58.9-8.3 61.02-6 63.15-3.7 66.65-3.7L66.65-3.7Q70.2-3.7 72.3-6.03 74.4-8.35 74.4-12 74.4-15.65 72.3-17.98 70.2-20.3 66.65-20.3ZM95.94-24L95.94-19.8 90.19-19.8 90.19 0 85.69 0 85.69-19.8 82.29-19.8 84.29-24 85.69-24Q85.69-29.1 89.14-32.08 92.59-35.05 97.94-35.05L97.94-35.05 97.94-30.85Q90.19-30.85 90.19-24L90.19-24 95.94-24ZM102.69-20.85L102.69-20.85Q106.19-24.5 111.44-24.5L111.44-24.5Q113.99-24.5 116.22-23.53 118.44-22.55 120.12-20.85 121.79-19.15 122.74-16.88 123.69-14.6 123.69-12L123.69-12Q123.69-9.4 122.77-7.13 121.84-4.85 120.19-3.15 118.54-1.45 116.29-0.48 114.04 0.5 111.44 0.5L111.44 0.5Q108.79 0.5 106.57-0.48 104.34-1.45 102.69-3.15 101.04-4.85 100.12-7.13 99.19-9.4 99.19-12L99.19-12Q99.19-17.3 102.69-20.85ZM111.44-20.3L111.44-20.3Q107.94-20.3 105.82-18 103.69-15.7 103.69-12 103.69-8.3 105.82-6 107.94-3.7 111.44-3.7L111.44-3.7Q114.99-3.7 117.09-6.03 119.19-8.35 119.19-12 119.19-15.65 117.09-17.98 114.99-20.3 111.44-20.3ZM132.59 0L128.19 0 128.19-13.65Q128.19-19.4 130.34-21.6L130.34-21.6Q131.39-22.7 132.89-23.25 134.39-23.8 135.51-23.9 136.64-24 138.59-24L138.59-24 142.99-24 142.99-19.8 137.69-19.8Q136.69-19.8 136.14-19.75 135.59-19.7 134.84-19.4 134.09-19.1 133.54-18.45L133.54-18.45Q132.59-17.25 132.59-13.65L132.59-13.65 132.59 0Z" opacity="1" transform="matrix(1,0,0,1,0,0)" fill="#915eff" class="undefined-text-0" data-fill-palette-color="primary" id="text-0"></path></svg></g></svg></g></svg></g></svg></g><g></g></svg></g></svg></g></svg></g></svg></g><defs></defs></svg><rect width="320" height="360" fill="none" stroke="none" visibility="hidden"></rect></g></svg></g></svg>